<?xml version="1.0" standalone="no"?>
<!DOCTYPE svg PUBLIC "-//W3C//DTD SVG 20010904//EN"
 "http://www.w3.org/TR/2001/REC-SVG-20010904/DTD/svg10.dtd">
<svg version="1.0" xmlns="http://www.w3.org/2000/svg"
 width="512.000000pt" height="512.000000pt" viewBox="0 0 512.000000 512.000000"
 preserveAspectRatio="xMidYMid meet">
<metadata>
Created by potrace 1.11, written by Peter Selinger 2001-2013
</metadata>
<g transform="translate(0.000000,512.000000) scale(0.100000,-0.100000)"
fill="#000000" stroke="none">
<path d="M746 2800 c-171 -43 -305 -206 -293 -356 6 -87 39 -141 176 -290 137
-149 151 -168 151 -212 0 -74 -67 -132 -152 -132 -60 0 -105 31 -139 96 l-26
51 -102 -54 c-55 -30 -101 -59 -101 -64 0 -27 64 -130 103 -166 54 -50 123
-73 218 -73 227 0 419 177 422 391 2 97 -31 155 -166 298 -179 188 -197 224
-136 275 69 58 145 42 207 -43 l28 -39 92 67 c50 36 91 71 92 78 0 23 -110
131 -156 153 -54 25 -159 34 -218 20z"/>
<path d="M3700 2700 c-66 -44 -107 -77 -112 -92 -3 -13 -18 -115 -33 -228 -14
-113 -42 -322 -61 -464 -19 -142 -34 -265 -34 -273 0 -10 24 -13 105 -13 l104
0 6 33 c8 47 55 407 55 421 0 6 70 -94 155 -222 l155 -232 125 0 c69 0 125 2
125 4 0 3 -85 123 -188 268 -103 145 -191 269 -196 276 -5 8 32 54 113 137 67
68 121 130 120 137 0 7 -8 55 -17 107 l-17 93 -170 -188 c-105 -116 -171 -182
-173 -173 -2 9 11 117 28 241 16 123 30 227 30 231 0 13 -16 5 -120 -63z"/>
<path d="M1467 2485 c-193 -53 -356 -231 -386 -423 -13 -83 -91 -675 -91 -691
0 -7 31 -11 94 -11 l94 0 11 80 c6 44 16 116 22 160 6 45 14 79 18 77 92 -50
131 -61 218 -65 112 -5 198 18 288 76 169 109 271 324 236 494 -31 152 -128
261 -270 302 -65 19 -167 19 -234 1z m141 -186 c95 -20 171 -113 172 -210 0
-76 -27 -138 -89 -200 -43 -42 -69 -59 -115 -73 -139 -44 -263 21 -296 156
-33 129 69 284 211 322 68 18 59 18 117 5z"/>
<path d="M2439 2486 c-177 -51 -339 -216 -378 -386 -37 -162 23 -336 144 -420
72 -49 142 -70 238 -70 75 0 162 17 194 38 9 6 46 232 39 239 -1 2 -21 -11
-44 -28 -132 -97 -296 -68 -363 63 -25 50 -25 148 0 205 101 222 411 238 471
24 14 -50 12 -129 -4 -252 -8 -57 -17 -129 -21 -159 -3 -30 -8 -67 -11 -82
l-6 -28 95 0 95 0 6 28 c22 111 58 437 53 495 -9 135 -108 269 -235 318 -70
27 -205 35 -273 15z"/>
<path d="M3243 2464 c-56 -20 -126 -84 -153 -139 -17 -35 -31 -115 -61 -343
-21 -163 -41 -309 -44 -324 l-4 -28 98 0 99 0 6 28 c3 15 8 47 11 72 3 25 19
148 36 275 37 278 35 275 144 275 l73 0 6 32 c3 17 9 62 13 100 l6 68 -94 -1
c-55 0 -111 -7 -136 -15z"/>
</g>
</svg>
